<svg xmlns="http://www.w3.org/2000/svg" viewBox="0 0 64 64" fill="none">
  <rect width="64" height="64" rx="32" fill="#1a73e8"/>
  <path fill="#fff" d="M32 12c1.2 8.5 3.5 14.8 8.5 19.5C45.5 36.2 51.5 38.8 60 40c-8.5 1.2-14.5 3.8-19.5 8.5C35.5 53.2 33.2 59.5 32 68c-1.2-8.5-3.5-14.8-8.5-19.5C18.5 43.8 12.5 41.2 4 40c8.5-1.2 14.5-3.8 19.5-8.5C28.5 26.8 30.8 20.5 32 12z" transform="translate(0 -4) scale(1)"/>
  <path fill="#8ab4f8" d="M32 18c.8 6 2.4 10.4 5.8 13.6 3.4 3.2 7.8 4.9 14.2 5.4-6.4.5-10.8 2.2-14.2 5.4-3.4 3.2-5 7.6-5.8 13.6-.8-6-2.4-10.4-5.8-13.6-3.4-3.2-7.8-4.9-14.2-5.4 6.4-.5 10.8-2.2 14.2-5.4 3.4-3.2 5-7.6 5.8-13.6z"/>
</svg>
